<?xml version="1.0" standalone="no"?>
<!DOCTYPE svg PUBLIC "-//W3C//DTD SVG 20010904//EN"
 "http://www.w3.org/TR/2001/REC-SVG-20010904/DTD/svg10.dtd">
<svg version="1.0" xmlns="http://www.w3.org/2000/svg"
 width="750.000000pt" height="750.000000pt" viewBox="0 0 750.000000 750.000000"
 preserveAspectRatio="xMidYMid meet">
<metadata>
Created by potrace 1.11, written by Peter Selinger 2001-2013
</metadata>
<g transform="translate(0.000000,750.000000) scale(0.100000,-0.100000)"
fill="#000000" stroke="none">
<path d="M3610 7486 c-83 -22 -109 -35 -346 -172 -120 -69 -235 -135 -254
-146 -83 -48 -380 -219 -555 -321 -104 -61 -221 -128 -260 -150 -38 -22 -225
-130 -415 -240 -190 -110 -433 -251 -541 -313 -250 -144 -350 -202 -369 -214
-8 -5 -37 -21 -65 -36 -219 -117 -338 -259 -371 -445 -10 -54 -11 -3328 -2
-3386 20 -118 100 -260 191 -336 44 -38 198 -132 367 -225 25 -14 97 -55 160
-92 242 -141 301 -173 409 -221 191 -85 337 -117 518 -113 80 1 119 5 208 20
99 17 229 75 315 142 121 95 232 285 256 440 3 20 7 39 9 42 14 24 18 378 18
1760 0 872 -3 1598 -6 1613 -13 50 -46 57 -260 56 -176 -1 -195 -3 -218 -21
l-24 -20 -5 -1632 -5 -1631 -27 -55 c-91 -185 -286 -252 -512 -176 -83 28 -97
36 -296 151 -69 40 -226 131 -350 203 -124 71 -233 141 -244 155 -19 25 -19
67 -19 1627 0 1311 2 1605 13 1625 8 15 60 52 129 92 64 36 157 90 206 119
156 91 718 415 760 439 39 21 470 270 650 375 50 29 110 63 135 77 24 14 101
58 170 98 362 211 703 407 734 422 30 14 40 14 63 4 27 -12 159 -88 553 -316
96 -56 195 -113 220 -127 63 -35 84 -47 370 -213 140 -81 334 -192 430 -247
96 -56 187 -109 202 -119 15 -11 30 -19 32 -19 3 0 35 -18 71 -40 36 -22 67
-40 69 -40 1 0 108 -61 236 -135 128 -74 234 -135 236 -135 1 0 54 -30 116
-67 62 -38 135 -79 162 -93 26 -14 61 -37 77 -52 l29 -26 0 -1619 c0 -1588 0
-1620 -19 -1640 -11 -11 -46 -36 -78 -54 -32 -18 -157 -90 -278 -160 -121 -69
-236 -135 -255 -146 -19 -11 -93 -54 -165 -95 -71 -42 -146 -85 -165 -96 -19
-11 -75 -43 -125 -72 -49 -29 -108 -63 -130 -75 -22 -13 -139 -80 -260 -150
-121 -70 -239 -138 -262 -151 -23 -13 -138 -80 -255 -148 -208 -120 -298 -172
-642 -370 -92 -54 -180 -98 -195 -98 -25 -1 -47 9 -116 51 -83 50 -518 309
-575 341 -96 55 -98 55 -171 15 -112 -61 -191 -98 -303 -140 -60 -22 -114 -48
-120 -57 -16 -26 20 -58 163 -142 69 -40 187 -109 261 -153 718 -426 697 -416
878 -409 68 2 127 10 162 22 53 18 197 99 835 468 160 93 304 177 322 187 18
10 267 154 555 320 622 359 664 383 957 551 199 114 283 171 325 220 54 62 95
133 123 213 l28 80 0 1670 c0 919 -4 1686 -7 1707 -35 178 -139 315 -320 421
-53 31 -101 57 -107 57 -5 0 -11 3 -13 8 -3 7 -186 115 -298 175 -30 16 -62
36 -71 43 -8 8 -18 14 -22 14 -4 0 -41 21 -84 46 -43 26 -96 57 -118 69 -22
13 -139 80 -260 150 -121 70 -236 137 -255 147 -45 26 -356 206 -670 388 -135
79 -263 153 -285 165 -43 23 -146 83 -401 231 -88 52 -189 103 -225 115 -83
27 -251 35 -329 15z"/>
<path d="M4488 5236 c-1 -2 -61 -6 -133 -9 -71 -4 -141 -9 -155 -11 -14 -2
-47 -8 -75 -12 -458 -69 -774 -301 -860 -635 -22 -86 -28 -133 -28 -229 0
-266 92 -455 285 -586 73 -50 177 -104 201 -104 7 0 17 -4 23 -8 20 -18 248
-78 372 -97 17 -3 44 -7 60 -9 36 -6 95 -14 157 -21 28 -3 66 -8 85 -10 19 -2
62 -7 95 -10 402 -40 677 -103 804 -186 91 -60 122 -164 91 -303 -41 -183
-201 -283 -515 -322 -79 -10 -489 -11 -590 -1 -298 28 -482 117 -568 275 -39
71 -71 180 -76 255 0 10 -12 29 -26 42 -24 25 -25 25 -233 25 -257 0 -256 0
-256 -106 -1 -252 81 -461 248 -629 148 -150 351 -249 621 -306 55 -11 116
-22 135 -25 19 -2 49 -6 65 -8 190 -27 519 -28 735 -1 387 48 694 194 856 408
114 150 165 325 159 542 -2 72 -6 144 -10 160 -44 216 -158 361 -364 465 -74
36 -198 85 -244 94 -12 3 -47 12 -77 21 -30 8 -68 17 -85 20 -16 3 -61 12
-100 20 -38 7 -88 16 -110 20 -130 19 -236 35 -280 40 -27 4 -108 15 -180 26
-71 11 -146 22 -165 25 -19 3 -46 7 -60 10 -14 3 -47 9 -75 14 -89 16 -184 40
-251 64 -138 50 -178 102 -177 232 1 129 49 213 158 278 43 26 146 61 204 71
19 3 37 8 40 10 14 8 186 18 316 18 132 1 259 -7 315 -18 14 -3 39 -8 55 -10
241 -42 385 -173 455 -415 35 -123 17 -115 263 -118 l213 -3 28 26 c27 25 28
29 22 96 -42 483 -330 783 -850 885 -44 8 -99 18 -121 20 -21 2 -51 7 -65 9
-14 3 -88 8 -165 11 -77 3 -145 7 -152 9 -6 2 -13 2 -15 1z"/>
</g>
</svg>
