<?xml version="1.0" encoding="utf-8"?>
<!-- Generator: Adobe Illustrator 16.0.0, SVG Export Plug-In . SVG Version: 6.00 Build 0)  -->
<!DOCTYPE svg PUBLIC "-//W3C//DTD SVG 1.1//EN" "http://www.w3.org/Graphics/SVG/1.1/DTD/svg11.dtd">
<svg version="1.1" id="Layer_1" xmlns="http://www.w3.org/2000/svg" xmlns:xlink="http://www.w3.org/1999/xlink" x="0px" y="0px"
	 width="42.5px" height="42.5px" viewBox="0 0 42.5 42.5" enable-background="new 0 0 42.5 42.5" xml:space="preserve">
<g>
	<path fill="#E31212" d="M21.25,0C9.532,0,0,9.532,0,21.25S9.532,42.5,21.25,42.5S42.5,32.968,42.5,21.25S32.968,0,21.25,0z
		 M21.25,40.308c-10.509,0-19.058-8.549-19.058-19.058c0-10.508,8.549-19.057,19.058-19.057c10.508,0,19.057,8.549,19.057,19.057
		C40.307,31.759,31.758,40.308,21.25,40.308z"/>
	<polygon fill="#E31212" points="27.85,13.101 21.25,19.7 14.65,13.101 13.1,14.651 19.699,21.25 13.1,27.85 14.65,29.399 
		21.25,22.801 27.85,29.399 29.399,27.85 22.8,21.25 29.399,14.651 	"/>
</g>
</svg>
