<?xml version="1.0" encoding="utf-8"?>
<!-- Generator: Adobe Illustrator 16.0.0, SVG Export Plug-In . SVG Version: 6.00 Build 0)  -->
<!DOCTYPE svg PUBLIC "-//W3C//DTD SVG 1.1//EN" "http://www.w3.org/Graphics/SVG/1.1/DTD/svg11.dtd">
<svg version="1.1" id="Layer_1" xmlns="http://www.w3.org/2000/svg" xmlns:xlink="http://www.w3.org/1999/xlink" x="0px" y="0px"
	 width="113px" height="113.467px" viewBox="0 0 113 113.467" enable-background="new 0 0 113 113.467" xml:space="preserve">
<g>
	<path fill="#FFFFFF" d="M55,15.895L27.5,0L0,15.895v31.784l27.5,15.897L55,47.679V15.895z M52,45.95l-24.5,14.16L3,45.95V17.625
		L27.5,3.467L52,17.625V45.95z"/>
	<path fill="#FFFFFF" d="M85.5,0L58,15.895v31.784l27.5,15.897L113,47.679V15.895L85.5,0z M110,45.95l-24.5,14.16L61,45.95V17.625
		L85.5,3.467L110,17.625V45.95z"/>
	<path fill="#FFFFFF" d="M29,65.787v31.782l27.501,15.897L84,97.569V65.787L56.501,49.892L29,65.787z M81,95.841L56.501,110
		L32,95.841V67.516l24.501-14.157L81,67.516V95.841z"/>
</g>
</svg>
