<?xml version="1.0" encoding="utf-8"?>
<!-- Generator: Adobe Illustrator 16.0.0, SVG Export Plug-In . SVG Version: 6.00 Build 0)  -->
<!DOCTYPE svg PUBLIC "-//W3C//DTD SVG 1.1//EN" "http://www.w3.org/Graphics/SVG/1.1/DTD/svg11.dtd">
<svg version="1.1" id="Layer_1" xmlns="http://www.w3.org/2000/svg" xmlns:xlink="http://www.w3.org/1999/xlink" x="0px" y="0px"
	 width="159.629px" height="180px" viewBox="0 0 159.629 180" enable-background="new 0 0 159.629 180" xml:space="preserve">
<g>
	<path fill="#FFFFFF" d="M152.7,39.887L86.743,1.771c-4.141-2.362-9.691-2.362-13.86,0L6.921,39.887C2.646,42.344,0,46.964,0,51.907
		v76.125c0,4.946,2.646,9.563,6.921,12.035l17.294,9.956c8.379,4.128,11.385,4.128,15.194,4.128
		c12.406,0,19.534-7.501,19.534-20.587V58.406c0-1.064-0.865-1.901-1.915-1.901h-8.36c-1.065,0-1.916,0.836-1.916,1.901v75.158
		c0,5.802-6.004,11.573-15.811,6.674l-18.069-10.443c-0.636-0.345-1.04-1.035-1.04-1.763V51.907c0-0.72,0.404-1.439,1.047-1.803
		l65.918-38.053c0.614-0.356,1.421-0.356,2.031,0l65.937,38.039c0.63,0.378,1.021,1.073,1.021,1.817v76.125
		c0,0.728-0.392,1.436-1.003,1.785l-65.966,38.07c-0.567,0.343-1.432,0.343-2.042,0l-16.92-10.042
		c-0.501-0.295-1.152-0.4-1.639-0.124c-4.682,2.653-5.569,3.006-9.956,4.529c-1.087,0.378-2.69,1.028,0.6,2.867l22.023,13.031
		C74.991,179.371,77.387,180,79.8,180c2.443,0,4.834-0.629,6.943-1.851l65.957-38.082c4.275-2.486,6.929-7.089,6.929-12.035V51.907
		C159.629,46.964,156.976,42.359,152.7,39.887z"/>
	<path fill="#FFFFFF" d="M100.173,115.972c-17.458,0-21.292-4.38-22.583-13.063c-0.146-0.931-0.941-1.614-1.894-1.614h-8.531
		c-1.054,0-1.901,0.844-1.901,1.901c0,11.111,6.045,24.36,34.909,24.36c20.9,0,32.885-8.232,32.885-22.605
		c0-14.245-9.629-18.04-29.896-20.718c-20.486-2.711-22.569-4.107-22.569-8.905c0-3.962,1.763-9.247,16.934-9.247
		c13.555,0,18.549,2.919,20.599,12.057c0.183,0.857,0.968,1.486,1.854,1.486h8.561c0.53,0,1.035-0.229,1.396-0.607
		c0.364-0.403,0.556-0.923,0.505-1.468c-1.322-15.736-11.78-23.067-32.914-23.067c-18.81,0-30.023,7.935-30.023,21.246
		c0,14.434,11.162,18.425,29.209,20.21c21.595,2.115,23.271,5.27,23.271,9.52C119.983,112.828,114.069,115.972,100.173,115.972z"/>
</g>
</svg>
