<?xml version="1.0" encoding="utf-8"?>
<!-- Generator: Adobe Illustrator 16.0.0, SVG Export Plug-In . SVG Version: 6.00 Build 0)  -->
<!DOCTYPE svg PUBLIC "-//W3C//DTD SVG 1.1//EN" "http://www.w3.org/Graphics/SVG/1.1/DTD/svg11.dtd">
<svg version="1.1" id="Layer_1" xmlns="http://www.w3.org/2000/svg" xmlns:xlink="http://www.w3.org/1999/xlink" x="0px" y="0px"
	 width="409px" height="50.169px" viewBox="0 0 409 50.169" enable-background="new 0 0 409 50.169" xml:space="preserve">
<g>
	<path fill="#FFFFFF" d="M292.813,25.211c-0.655-0.486-1.397-0.895-2.228-1.221c-0.831-0.328-1.683-0.625-2.556-0.895
		c-0.872-0.268-1.724-0.536-2.555-0.804c-0.83-0.268-1.573-0.586-2.228-0.955c-0.654-0.368-1.183-0.811-1.586-1.33
		c-0.402-0.519-0.604-1.171-0.604-1.958c0-0.636,0.146-1.243,0.44-1.82c0.293-0.577,0.705-1.083,1.233-1.519
		c0.528-0.435,1.166-0.782,1.913-1.042c0.746-0.26,1.573-0.39,2.479-0.39c1.007,0,1.857,0.105,2.555,0.315
		c0.695,0.21,1.283,0.445,1.762,0.705c0.479,0.26,0.864,0.495,1.158,0.705c0.293,0.21,0.532,0.315,0.717,0.315
		c0.252,0,0.437-0.117,0.554-0.353l0.528-0.831c-0.99-0.911-2.076-1.587-3.259-2.03c-1.184-0.442-2.539-0.664-4.065-0.664
		c-1.275,0-2.425,0.185-3.448,0.554c-1.024,0.37-1.893,0.865-2.605,1.485c-0.713,0.621-1.263,1.343-1.648,2.165
		c-0.387,0.822-0.579,1.678-0.579,2.567c0,1.041,0.201,1.909,0.604,2.605c0.402,0.697,0.931,1.288,1.585,1.775
		c0.655,0.487,1.397,0.89,2.229,1.208c0.83,0.318,1.686,0.613,2.567,0.881c0.881,0.269,1.736,0.537,2.567,0.806
		c0.83,0.269,1.573,0.596,2.228,0.981c0.654,0.387,1.183,0.855,1.585,1.41c0.403,0.553,0.604,1.25,0.604,2.089
		c0,0.755-0.139,1.472-0.415,2.151c-0.277,0.68-0.685,1.271-1.221,1.775c-0.537,0.504-1.208,0.902-2.014,1.195
		c-0.806,0.294-1.737,0.44-2.794,0.44c-1.125,0-2.068-0.134-2.832-0.402s-1.401-0.558-1.913-0.868s-0.928-0.6-1.246-0.869
		c-0.318-0.268-0.587-0.402-0.806-0.402c-0.185,0-0.327,0.033-0.428,0.101s-0.192,0.168-0.276,0.302l-0.579,0.855
		c1.007,0.906,2.147,1.641,3.423,2.203s2.794,0.844,4.557,0.844c1.393,0,2.634-0.202,3.725-0.604
		c1.091-0.403,2.01-0.948,2.757-1.636c0.746-0.688,1.316-1.502,1.711-2.441c0.395-0.94,0.592-1.955,0.592-3.047
		c0-1.006-0.201-1.862-0.604-2.566C293.995,26.293,293.467,25.697,292.813,25.211z"/>
	<path fill="#FFFFFF" d="M318.033,32.611c-0.186,0-0.433,0.143-0.743,0.428s-0.729,0.596-1.258,0.931
		c-0.529,0.336-1.2,0.646-2.014,0.932c-0.814,0.285-1.825,0.428-3.033,0.428c-1.31,0-2.501-0.243-3.574-0.729
		c-1.074-0.486-1.989-1.196-2.744-2.127c-0.755-0.932-1.338-2.077-1.749-3.437c-0.411-1.358-0.617-2.919-0.617-4.682
		c0-1.695,0.202-3.222,0.604-4.581s0.985-2.517,1.749-3.474s1.703-1.69,2.819-2.202s2.396-0.768,3.839-0.768
		c1.04,0,1.926,0.113,2.655,0.34s1.338,0.475,1.825,0.743c0.486,0.269,0.876,0.516,1.17,0.743s0.524,0.34,0.692,0.34
		c0.134,0,0.239-0.029,0.314-0.088c0.076-0.059,0.155-0.13,0.239-0.214l0.629-0.856c-0.939-0.889-2.043-1.594-3.31-2.114
		c-1.268-0.52-2.715-0.78-4.342-0.78c-1.813,0-3.419,0.315-4.82,0.944c-1.401,0.629-2.584,1.515-3.549,2.656
		c-0.966,1.141-1.699,2.5-2.203,4.078c-0.503,1.578-0.755,3.322-0.755,5.235c0,2.03,0.265,3.843,0.793,5.437
		c0.528,1.595,1.267,2.941,2.215,4.041c0.948,1.099,2.081,1.938,3.398,2.517s2.772,0.868,4.367,0.868
		c0.939,0,1.841-0.088,2.706-0.264c0.863-0.177,1.665-0.424,2.403-0.743c0.738-0.318,1.401-0.696,1.988-1.133
		c0.588-0.437,1.074-0.905,1.46-1.409l-0.654-0.806C318.419,32.695,318.251,32.611,318.033,32.611z"/>
	<path fill="#FFFFFF" d="M342.221,13.984c-0.688-0.822-1.557-1.451-2.605-1.888c-1.049-0.436-2.261-0.654-3.637-0.654
		c-1.846,0-3.521,0.424-5.005,1.271c-1.485,0.848-2.974,1.985-3.974,3.411V0h-2v37h2V18.112c1-1.477,2.375-2.639,3.784-3.486
		c1.41-0.847,2.94-1.271,4.585-1.271c2.217,0,3.902,0.667,4.977,2.001S342,18.532,342,20.881V37h2V20.881
		c0-1.46-0.021-2.769-0.374-3.926C343.273,15.796,342.909,14.807,342.221,13.984z"/>
	<path fill="#FFFFFF" d="M369.808,14.966c-0.974-1.124-2.169-1.992-3.587-2.605c-1.418-0.612-3.024-0.919-4.82-0.919
		s-3.402,0.307-4.82,0.919c-1.418,0.613-2.617,1.481-3.599,2.605c-0.982,1.125-1.729,2.479-2.24,4.065
		c-0.513,1.586-0.769,3.36-0.769,5.324c0,1.964,0.256,3.733,0.769,5.312c0.512,1.577,1.258,2.928,2.24,4.053
		c0.981,1.124,2.181,1.988,3.599,2.592c1.418,0.604,3.024,0.906,4.82,0.906s3.402-0.302,4.82-0.906
		c1.418-0.604,2.613-1.468,3.587-2.592c0.973-1.125,1.716-2.476,2.228-4.053c0.512-1.578,0.768-3.348,0.768-5.312
		c0-1.963-0.256-3.738-0.768-5.324C371.523,17.445,370.78,16.09,369.808,14.966z M369.782,28.898
		c-0.369,1.351-0.927,2.504-1.674,3.461c-0.747,0.956-1.678,1.69-2.794,2.202s-2.421,0.768-3.914,0.768s-2.798-0.256-3.914-0.768
		s-2.047-1.246-2.794-2.202c-0.747-0.957-1.309-2.11-1.687-3.461c-0.377-1.352-0.566-2.865-0.566-4.544
		c0-1.661,0.189-3.171,0.566-4.531c0.378-1.359,0.939-2.521,1.687-3.486s1.678-1.708,2.794-2.228c1.116-0.52,2.421-0.78,3.914-0.78
		s2.798,0.261,3.914,0.78c1.116,0.521,2.047,1.263,2.794,2.228s1.305,2.127,1.674,3.486c0.369,1.359,0.554,2.87,0.554,4.531
		C370.336,26.033,370.151,27.547,369.782,28.898z"/>
	<path fill="#FFFFFF" d="M397.042,14.966c-0.974-1.124-2.169-1.992-3.587-2.605c-1.418-0.612-3.024-0.919-4.82-0.919
		s-3.402,0.307-4.82,0.919c-1.418,0.613-2.617,1.481-3.599,2.605c-0.982,1.125-1.729,2.479-2.24,4.065
		c-0.513,1.586-0.769,3.36-0.769,5.324c0,1.964,0.256,3.733,0.769,5.312c0.512,1.577,1.258,2.928,2.24,4.053
		c0.981,1.124,2.181,1.988,3.599,2.592c1.418,0.604,3.024,0.906,4.82,0.906s3.402-0.302,4.82-0.906
		c1.418-0.604,2.613-1.468,3.587-2.592c0.973-1.125,1.716-2.476,2.228-4.053c0.512-1.578,0.768-3.348,0.768-5.312
		c0-1.963-0.256-3.738-0.768-5.324C398.758,17.445,398.015,16.09,397.042,14.966z M397.017,28.898
		c-0.369,1.351-0.927,2.504-1.674,3.461c-0.747,0.956-1.678,1.69-2.794,2.202s-2.421,0.768-3.914,0.768s-2.798-0.256-3.914-0.768
		s-2.047-1.246-2.794-2.202c-0.747-0.957-1.309-2.11-1.687-3.461c-0.377-1.352-0.566-2.865-0.566-4.544
		c0-1.661,0.189-3.171,0.566-4.531c0.378-1.359,0.939-2.521,1.687-3.486s1.678-1.708,2.794-2.228c1.116-0.52,2.421-0.78,3.914-0.78
		s2.798,0.261,3.914,0.78c1.116,0.521,2.047,1.263,2.794,2.228s1.305,2.127,1.674,3.486c0.369,1.359,0.554,2.87,0.554,4.531
		C397.57,26.033,397.386,27.547,397.017,28.898z"/>
	<rect x="407" fill="#FFFFFF" width="2" height="37"/>
	<path fill="#FFFFFF" d="M258.36,12.525l-17.61-10.24c-1.111-0.635-2.548-0.635-3.668,0l-17.472,10.24
		c-1.148,0.66-1.61,1.901-1.61,3.229v20.452c0,1.329,0.489,2.569,1.638,3.233l4.536,2.675c2.25,1.109,2.807,1.109,3.83,1.109
		c3.333,0,4.996-2.016,4.996-5.531V17.501c0-0.286,0.16-0.501-0.122-0.501h-2.246c-0.286,0-0.632,0.215-0.632,0.501v20.192
		c0,1.559-1.555,3.109-4.189,1.793l-4.693-2.806c-0.17-0.093-0.117-0.278-0.117-0.474V15.755c0-0.193-0.023-0.387,0.148-0.484
		l17.645-10.224c0.165-0.096,0.349-0.096,0.513,0l17.567,10.22c0.169,0.102,0.127,0.288,0.127,0.488v20.452
		c0,0.195,0.025,0.386-0.139,0.479l-17.657,10.229c-0.152,0.092-0.353,0.092-0.517,0l-4.529-2.698
		c-0.135-0.079-0.301-0.107-0.432-0.033c-1.258,0.713-1.492,0.808-2.671,1.217c-0.292,0.102-0.721,0.276,0.163,0.771l5.918,3.501
		c0.566,0.328,1.21,0.497,1.858,0.497c0.656,0,1.3-0.169,1.866-0.497L258.36,39.44c1.148-0.668,1.64-1.904,1.64-3.233V15.755
		C260,14.427,259.509,13.189,258.36,12.525z"/>
	<path fill="#FFFFFF" d="M244.47,32.967c-4.69,0-5.721-1.188-6.067-3.521c-0.039-0.25-0.253-0.445-0.509-0.445h-2.292
		c-0.283,0-0.511,0.238-0.511,0.522c0,2.985,1.624,6.551,9.379,6.551c5.615,0,8.835-2.209,8.835-6.07
		c0-3.827-2.587-4.845-8.032-5.565c-5.504-0.729-6.063-1.103-6.063-2.392c0-1.064,0.474-2.484,4.55-2.484
		c3.642,0,4.983,0.684,5.534,3.139c0.049,0.23,0.26,0.299,0.498,0.299h2.3c0.143,0,0.278,0.039,0.375-0.063
		c0.098-0.108,0.149-0.198,0.136-0.344c-0.355-4.228-3.165-6.172-8.843-6.172c-5.054,0-8.066,2.145-8.066,5.721
		c0,3.878,2.999,4.957,7.848,5.437c5.802,0.568,6.252,1.419,6.252,2.561C249.792,32.119,248.203,32.967,244.47,32.967z"/>
	<polygon fill="#FFFFFF" points="23.823,27.072 19.59,13 14.153,13 9.961,27.029 6.392,14 0,14 6.849,36 12.493,36 16.851,22.346 
		21.125,36 26.812,36 33.742,14 27.476,14 	"/>
	<path fill="#FFFFFF" d="M45.083,13.129C38.608,13.129,34,18.358,34,24.709v0.082c0,6.807,5.142,11.496,11.823,11.496
		c4.026,0,7.116-1.576,9.191-4.15l-3.561-3.195c-1.742,1.619-3.253,2.35-5.37,2.35c-2.822,0-4.788-1.291-5.411-4.291h15.48
		C56.195,26,56,25.912,56,25.289v-0.083C56,18.898,52.512,13.129,45.083,13.129z M40.59,23c0.498-3,2.2-4.731,4.814-4.731
		c2.656,0,4.316,1.731,4.69,4.731H40.59z"/>
	<rect x="85" y="29" fill="#FFFFFF" width="6" height="7"/>
	<path fill="#FFFFFF" d="M71.902,13.129c-3.278,0-4.902,1.536-6.902,3.611V5h-6v31h6v-3.115c2,1.784,3.541,3.32,6.902,3.32
		C77.173,36.205,82,32.137,82,24.709v-0.084C82,17.196,77.09,13.129,71.902,13.129z M76,24.709c0,3.734-2.574,6.142-5.521,6.142
		c-2.947,0-5.479-2.448-5.479-6.142v-0.084c0-3.694,2.532-6.142,5.479-6.142c2.946,0,5.521,2.448,5.521,6.142V24.709z"/>
	<path fill="#FFFFFF" d="M190.081,13.295c-3.776,0-6.184,0.706-8.633,1.785l1.577,4.814c2.033-0.747,3.765-1.204,6.172-1.204
		c3.154,0,4.802,1.452,4.802,4.067v0.373c-2-0.539-2.995-0.913-5.236-0.913c-5.271,0-8.764,2.241-8.764,7.097v0.084
		c0,4.398,3.265,6.807,7.457,6.807c3.071,0,4.543-1.121,6.543-2.822V36h6V22.882C200,16.864,196.971,13.295,190.081,13.295z
		 M194,27.945c0,2.283-1.801,3.901-4.747,3.901c-2.033,0-3.253-0.996-3.253-2.698v-0.082c0-1.992,1.469-3.072,4.167-3.072
		c1.535,0,2.833,0.332,3.833,0.831V27.945z"/>
	<polygon fill="#FFFFFF" points="159,19 170.326,19 159,31.349 159,36 178,36 178,31 166.632,31 178,17.985 178,14 159,14 	"/>
	<path fill="#FFFFFF" d="M151,18.026V14h-7v22h7v-8.428c0-5.313,2.185-7.572,6.377-7.572H158v-6.871
		C154,12.963,152,14.955,151,18.026z"/>
	<path fill="#FFFFFF" d="M107.902,13.129c-3.278,0-5.902,1.536-6.902,3.611V5h-6v31h6v-3.115c1,1.784,3.541,3.32,6.902,3.32
		c5.271,0,10.098-4.068,10.098-11.496v-0.084C118,17.196,113.09,13.129,107.902,13.129z M112,24.709
		c0,3.734-2.573,6.142-5.521,6.142S101,28.402,101,24.709v-0.084c0-3.694,2.532-6.142,5.479-6.142S112,20.931,112,24.625V24.709z"/>
	<path fill="#FFFFFF" d="M134,25.953c0,2.988-1.155,4.523-3.562,4.523c-2.408,0-3.438-1.535-3.438-4.523V14h-7v13.945
		c0,5.105,2.746,8.26,7.519,8.26c3.196,0,5.481-1.701,6.481-3.57V36h7V14h-7V25.953z"/>
</g>
</svg>
