<?xml version="1.0" encoding="utf-8"?>
<!-- Generator: Adobe Illustrator 16.0.0, SVG Export Plug-In . SVG Version: 6.00 Build 0)  -->
<!DOCTYPE svg PUBLIC "-//W3C//DTD SVG 1.1//EN" "http://www.w3.org/Graphics/SVG/1.1/DTD/svg11.dtd">
<svg version="1.1" id="Layer_1" xmlns="http://www.w3.org/2000/svg" xmlns:xlink="http://www.w3.org/1999/xlink" x="0px" y="0px"
	 width="146.94px" height="142px" viewBox="0 0 146.94 142" enable-background="new 0 0 146.94 142" xml:space="preserve">
<g>
	<g>
		<path fill="#FFFFFF" d="M142.55,119.172c0,1.679-1.465,2.867-3.629,2.867c-1.494,0-2.531-0.731-2.531-1.982v-0.062
			c0-1.462,1.22-2.254,3.202-2.254c1.13,0,2.165,0.241,2.958,0.609V119.172z M146.94,124.937v-9.484c0-4.42-2.226-7.042-7.288-7.042
			c-2.774,0-4.543,0.518-6.342,1.31l1.158,3.538c1.494-0.548,2.744-0.885,4.514-0.885c2.316,0,3.507,1.068,3.507,2.988v0.275
			c-1.159-0.397-2.348-0.673-3.995-0.673c-3.873,0-6.587,1.646-6.587,5.215v0.063c0,3.232,2.532,5,5.611,5
			c2.256,0,3.812-0.824,4.939-2.073v1.769H146.94z M130.901,124.937v-3.75h-8.477l8.477-9.331v-3.263h-13.936v3.749h8.173
			l-8.447,9.331v3.264H130.901z M115.869,113.136v-4.849c-2.743-0.122-4.269,1.341-5.215,3.6v-3.294h-4.634v16.344h4.634v-6.038
			c0-3.902,1.891-5.763,4.972-5.763H115.869z M103.398,124.937v-16.344h-4.635v9.117c0,2.194-1.129,3.323-2.897,3.323
			c-1.767,0-2.805-1.129-2.805-3.323v-9.117h-4.636v10.579c0,3.751,2.042,6.069,5.551,6.069c2.348,0,3.72-1.252,4.787-2.622v2.317
			H103.398z M82.023,116.795c0,2.743-1.829,4.513-3.994,4.513c-2.166,0-3.965-1.799-3.965-4.513v-0.062
			c0-2.714,1.799-4.515,3.965-4.515c2.165,0,3.994,1.801,3.994,4.515V116.795z M86.659,116.795v-0.062
			c0-5.458-3.629-8.446-7.441-8.446c-2.408,0-3.964,1.129-5.092,2.653v-8.264h-4.635v22.26h4.635v-2.135
			c1.097,1.312,2.624,2.439,5.092,2.439C83.09,125.241,86.659,122.252,86.659,116.795 M67.052,120.057h-4.94v4.88h4.94V120.057z
			 M55.77,116.795c0,2.743-1.829,4.513-3.995,4.513c-2.164,0-3.964-1.799-3.964-4.513v-0.062c0-2.714,1.8-4.515,3.964-4.515
			c2.166,0,3.995,1.801,3.995,4.515V116.795z M60.405,116.795v-0.062c0-5.458-3.63-8.446-7.44-8.446
			c-2.41,0-3.964,1.129-5.093,2.653v-8.264h-4.633v22.26h4.633v-2.135c1.099,1.312,2.623,2.439,5.093,2.439
			C56.837,125.241,60.405,122.252,60.405,116.795 M36.804,115.483h-6.983c0.366-2.104,1.617-3.478,3.537-3.478
			C35.31,112.006,36.529,113.41,36.804,115.483 M41.317,117.221v-0.061c0-4.637-2.501-8.873-7.959-8.873
			c-4.756,0-8.08,3.842-8.08,8.508v0.061c0,5,3.629,8.446,8.538,8.446c2.958,0,5.154-1.16,6.678-3.05l-2.653-2.348
			c-1.28,1.189-2.408,1.678-3.964,1.678c-2.074,0-3.537-1.1-3.994-3.202h11.374C41.286,117.952,41.317,117.678,41.317,117.221
			 M24.791,108.593h-4.604l-2.684,9.94l-3.11-10.001h-3.993l-3.081,9.971l-2.623-9.91H0l5.031,16.465h4.146l3.202-10.033
			l3.141,10.033h4.178L24.791,108.593z"/>
		<path fill="#FFFFFF" d="M12.307,140.39c-1.064,1.063-2.478,1.596-3.877,1.596c-3.588,0-5.457-2.51-5.473-5.382
			c-0.029-2.845,1.825-5.504,5.473-5.504c1.399,0,2.813,0.532,3.877,1.596l-0.563,0.486c-0.912-0.912-2.114-1.354-3.315-1.354
			c-3.101,0-4.698,2.19-4.683,4.744c0.032,2.493,1.613,4.652,4.683,4.652c1.201,0,2.417-0.456,3.329-1.354L12.307,140.39z"/>
		<path fill="#FFFFFF" d="M23.83,141.863h-1.08l-3.678-4.028h-2.905v4.028h-0.82v-10.643h4.682c2.311,0,3.482,1.657,3.498,3.315
			c0.015,1.731-1.125,3.253-3.451,3.253L23.83,141.863z M16.167,137.059h3.771c1.854,0,2.675-1.049,2.691-2.539
			c0.016-1.245-0.836-2.539-2.6-2.539h-3.862V137.059z"/>
		<polygon fill="#FFFFFF" points="27.114,136.131 33.347,136.131 33.347,136.876 27.114,136.876 27.114,141.074 33.833,141.074 
			33.833,141.863 26.307,141.863 26.307,131.221 33.65,131.221 33.65,131.997 27.114,131.997 		"/>
		<path fill="#FFFFFF" d="M45.22,141.863l-1.171-2.615h-6.354l-1.156,2.615h-0.882l4.774-10.643h0.898l4.773,10.643H45.22z
			 M43.73,138.487l-2.858-6.476l-2.858,6.476H43.73z"/>
		<polygon fill="#FFFFFF" points="49.857,131.966 46.01,131.966 46.01,131.235 54.525,131.235 54.525,131.966 50.677,131.966 
			50.677,141.863 49.857,141.863 		"/>
		<rect x="57.2" y="131.221" fill="#FFFFFF" width="0.805" height="10.643"/>
		<polygon fill="#FFFFFF" points="70.29,131.221 65.91,141.894 65.029,141.894 60.651,131.221 61.531,131.221 65.469,140.952 
			69.407,131.221 		"/>
		<polygon fill="#FFFFFF" points="73.619,136.131 79.851,136.131 79.851,136.876 73.619,136.876 73.619,141.074 80.338,141.074 
			80.338,141.863 72.811,141.863 72.811,131.221 80.156,131.221 80.156,131.997 73.619,131.997 		"/>
		<path fill="#FFFFFF" d="M95.404,133.791c0-1.674-1.308-1.963-2.723-1.963c-2.037,0-3.009,0.945-2.994,2.145
			c0.016,1.627,1.748,2.127,3.024,2.127h4.517v0.654h-0.973v2.325c0,1.143,0.259,2.161,1.321,2.146v0.639
			c-0.866,0.122-1.551-0.457-1.778-1.354c-0.775,1.263-1.991,1.491-3.132,1.491c-2.584,0-3.938-1.14-3.938-2.965
			c0-1.323,1.081-2.25,2.145-2.6c-1.109-0.336-1.962-1.263-1.962-2.448c0-1.64,1.353-2.826,3.785-2.826
			c1.705,0,3.423,0.438,3.423,2.63H95.404z M95.586,136.754h-2.919c-2.098,0-3.162,1.188-3.162,2.281
			c0,1.369,1.004,2.249,3.146,2.249c1.216,0,2.935-0.424,2.935-2.205V136.754z"/>
		<polygon fill="#FFFFFF" points="108.919,131.966 105.07,131.966 105.07,131.235 113.586,131.235 113.586,131.966 109.741,131.966 
			109.741,141.863 108.919,141.863 		"/>
		<polygon fill="#FFFFFF" points="117.052,136.131 123.285,136.131 123.285,136.876 117.052,136.876 117.052,141.074 
			123.772,141.074 123.772,141.863 116.247,141.863 116.247,131.221 123.59,131.221 123.59,131.997 117.052,131.997 		"/>
		<path fill="#FFFFFF" d="M135.479,140.39c-1.065,1.063-2.479,1.596-3.877,1.596c-3.589,0-5.459-2.51-5.472-5.382
			c-0.031-2.845,1.823-5.504,5.472-5.504c1.398,0,2.812,0.532,3.877,1.596l-0.563,0.486c-0.912-0.912-2.113-1.354-3.314-1.354
			c-3.103,0-4.698,2.19-4.685,4.744c0.033,2.493,1.613,4.652,4.685,4.652c1.201,0,2.417-0.456,3.329-1.354L135.479,140.39z"/>
		<polygon fill="#FFFFFF" points="146.12,141.863 146.12,137.029 139.338,137.029 139.338,141.863 138.518,141.863 138.518,131.221 
			139.338,131.221 139.338,136.283 146.12,136.283 146.12,131.221 146.94,131.221 146.94,141.863 		"/>
	</g>
	<g>
		<path fill="#FFFFFF" d="M88.305,81.716c-4.096,4.096-8.992,6.193-14.786,6.193c-5.793,0-10.688-2.098-14.884-6.193
			c-3.996-3.996-6.094-8.99-6.094-14.784c0-5.694,2.098-10.589,6.094-14.784c4.196-4.098,9.091-6.196,14.884-6.196
			c5.794,0,10.69,2.099,14.786,6.196C92.5,56.343,94.4,61.237,94.4,66.932C94.4,72.726,92.5,77.72,88.305,81.716"/>
		<path fill="#FFFFFF" d="M116.276,35.762c-4.196,4.097-9.092,6.094-14.784,6.094c-5.896,0-10.79-1.997-14.984-6.094
			c-3.998-4.096-5.994-9.089-5.994-14.785c0-5.795,1.996-10.689,5.994-14.883C90.702,2.098,95.597,0,101.492,0
			c5.692,0,10.588,2.098,14.784,6.094c4.095,4.194,6.194,9.088,6.194,14.883C122.471,26.673,120.371,31.667,116.276,35.762"/>
		<path fill="#FFFFFF" d="M60.234,35.762c-3.996,3.996-8.891,6.094-14.785,6.094c-5.694,0-10.589-2.098-14.785-6.094
			c-4.095-4.096-6.194-9.089-6.194-14.785c0-5.795,2.099-10.689,6.194-14.883C34.86,2.098,39.754,0,45.449,0
			c5.894,0,10.789,2.098,14.785,6.094c4.196,4.194,6.193,9.088,6.193,14.883C66.427,26.673,64.43,31.667,60.234,35.762"/>
	</g>
</g>
</svg>
